<mxfile host="app.diagrams.net" modified="2024-03-20T03:37:03.476Z" agent="Mozilla/5.0 (Windows NT 10.0; Win64; x64) AppleWebKit/537.36 (KHTML, like Gecko) Chrome/122.0.0.0 Safari/537.36" etag="WEXioTuxtnMWsxxENPlB" version="24.0.7" type="device">
  <diagram name="Page-1" id="f1b7ffb7-ca1e-a977-7cf5-a751b3c06c05">
    <mxGraphModel dx="2206" dy="1135" grid="1" gridSize="10" guides="1" tooltips="1" connect="1" arrows="1" fold="1" page="1" pageScale="1" pageWidth="826" pageHeight="1169" background="none" math="0" shadow="0">
      <root>
        <mxCell id="0" />
        <mxCell id="1" parent="0" />
        <mxCell id="OR1jQChTx1EjwapNimjL-164" value="" style="rounded=1;whiteSpace=wrap;html=1;arcSize=8;" vertex="1" parent="1">
          <mxGeometry width="820" height="1160" as="geometry" />
        </mxCell>
        <mxCell id="OR1jQChTx1EjwapNimjL-165" value="&lt;font style=&quot;font-size: 24px;&quot;&gt;white filled with black outline and text&lt;/font&gt;" style="text;strokeColor=none;align=center;fillColor=none;html=1;verticalAlign=middle;whiteSpace=wrap;rounded=0;" vertex="1" parent="1">
          <mxGeometry x="1090" y="390" width="240" height="30" as="geometry" />
        </mxCell>
        <mxCell id="OR1jQChTx1EjwapNimjL-166" style="edgeStyle=orthogonalEdgeStyle;rounded=0;orthogonalLoop=1;jettySize=auto;html=1;exitX=1;exitY=0.5;exitDx=0;exitDy=0;" edge="1" parent="1" source="OR1jQChTx1EjwapNimjL-167">
          <mxGeometry relative="1" as="geometry">
            <mxPoint x="1100" y="420" as="targetPoint" />
          </mxGeometry>
        </mxCell>
        <mxCell id="OR1jQChTx1EjwapNimjL-167" value="Password input" style="rounded=1;whiteSpace=wrap;html=1;fontSize=24;" vertex="1" parent="1">
          <mxGeometry x="160" y="730" width="510" height="60" as="geometry" />
        </mxCell>
        <mxCell id="OR1jQChTx1EjwapNimjL-168" style="edgeStyle=orthogonalEdgeStyle;rounded=0;orthogonalLoop=1;jettySize=auto;html=1;exitX=1;exitY=0.5;exitDx=0;exitDy=0;" edge="1" parent="1" source="OR1jQChTx1EjwapNimjL-169">
          <mxGeometry relative="1" as="geometry">
            <mxPoint x="1100" y="400" as="targetPoint" />
          </mxGeometry>
        </mxCell>
        <mxCell id="OR1jQChTx1EjwapNimjL-169" value="Email input" style="rounded=1;whiteSpace=wrap;html=1;fontSize=24;" vertex="1" parent="1">
          <mxGeometry x="157" y="640" width="510" height="60" as="geometry" />
        </mxCell>
        <mxCell id="OR1jQChTx1EjwapNimjL-170" style="edgeStyle=orthogonalEdgeStyle;rounded=0;orthogonalLoop=1;jettySize=auto;html=1;exitX=1;exitY=0.5;exitDx=0;exitDy=0;" edge="1" parent="1" source="OR1jQChTx1EjwapNimjL-171">
          <mxGeometry relative="1" as="geometry">
            <mxPoint x="950" y="79.81818181818176" as="targetPoint" />
          </mxGeometry>
        </mxCell>
        <mxCell id="OR1jQChTx1EjwapNimjL-171" value="IMG BTN&lt;div&gt;Logo&lt;/div&gt;" style="rounded=1;whiteSpace=wrap;html=1;" vertex="1" parent="1">
          <mxGeometry x="40" y="30" width="180" height="100" as="geometry" />
        </mxCell>
        <mxCell id="OR1jQChTx1EjwapNimjL-172" value="&lt;font style=&quot;font-size: 24px;&quot;&gt;Goes to home page through logo click&amp;nbsp;&lt;/font&gt;" style="text;html=1;align=center;verticalAlign=middle;whiteSpace=wrap;rounded=0;" vertex="1" parent="1">
          <mxGeometry x="1019" y="65" width="220" height="30" as="geometry" />
        </mxCell>
        <mxCell id="OR1jQChTx1EjwapNimjL-173" style="edgeStyle=orthogonalEdgeStyle;rounded=0;orthogonalLoop=1;jettySize=auto;html=1;exitX=1;exitY=0.5;exitDx=0;exitDy=0;" edge="1" parent="1" source="OR1jQChTx1EjwapNimjL-174">
          <mxGeometry relative="1" as="geometry">
            <mxPoint x="1260.0000000000005" y="540" as="targetPoint" />
          </mxGeometry>
        </mxCell>
        <mxCell id="OR1jQChTx1EjwapNimjL-174" value="&lt;font style=&quot;font-size: 24px;&quot;&gt;Login Instead Btn&lt;/font&gt;" style="rounded=1;whiteSpace=wrap;html=1;" vertex="1" parent="1">
          <mxGeometry x="70" y="1040" width="680" height="60" as="geometry" />
        </mxCell>
        <mxCell id="OR1jQChTx1EjwapNimjL-175" value="&lt;font style=&quot;font-size: 24px;&quot;&gt;light Orange with white text button&lt;/font&gt;" style="text;strokeColor=none;align=center;fillColor=none;html=1;verticalAlign=middle;whiteSpace=wrap;rounded=0;" vertex="1" parent="1">
          <mxGeometry x="1180" y="500" width="210" height="30" as="geometry" />
        </mxCell>
        <mxCell id="OR1jQChTx1EjwapNimjL-176" style="edgeStyle=orthogonalEdgeStyle;rounded=0;orthogonalLoop=1;jettySize=auto;html=1;exitX=0.5;exitY=0;exitDx=0;exitDy=0;entryX=0.5;entryY=0;entryDx=0;entryDy=0;" edge="1" parent="1" source="OR1jQChTx1EjwapNimjL-177" target="OR1jQChTx1EjwapNimjL-165">
          <mxGeometry relative="1" as="geometry" />
        </mxCell>
        <mxCell id="OR1jQChTx1EjwapNimjL-177" value="User btn" style="rounded=1;whiteSpace=wrap;html=1;fontSize=24;" vertex="1" parent="1">
          <mxGeometry x="157" y="354.5" width="130" height="60" as="geometry" />
        </mxCell>
        <mxCell id="OR1jQChTx1EjwapNimjL-178" style="edgeStyle=orthogonalEdgeStyle;rounded=0;orthogonalLoop=1;jettySize=auto;html=1;exitX=0.75;exitY=0;exitDx=0;exitDy=0;entryX=0.25;entryY=0;entryDx=0;entryDy=0;" edge="1" parent="1" source="OR1jQChTx1EjwapNimjL-179" target="OR1jQChTx1EjwapNimjL-165">
          <mxGeometry relative="1" as="geometry" />
        </mxCell>
        <mxCell id="OR1jQChTx1EjwapNimjL-179" value="Supplier btn" style="rounded=1;whiteSpace=wrap;html=1;fontSize=24;" vertex="1" parent="1">
          <mxGeometry x="347" y="354.5" width="130" height="60" as="geometry" />
        </mxCell>
        <mxCell id="OR1jQChTx1EjwapNimjL-180" style="edgeStyle=orthogonalEdgeStyle;rounded=0;orthogonalLoop=1;jettySize=auto;html=1;exitX=1;exitY=0.5;exitDx=0;exitDy=0;entryX=0;entryY=0.5;entryDx=0;entryDy=0;" edge="1" parent="1" source="OR1jQChTx1EjwapNimjL-181" target="OR1jQChTx1EjwapNimjL-165">
          <mxGeometry relative="1" as="geometry" />
        </mxCell>
        <mxCell id="OR1jQChTx1EjwapNimjL-181" value="Admin btn" style="rounded=1;whiteSpace=wrap;html=1;fontSize=24;" vertex="1" parent="1">
          <mxGeometry x="537" y="354.5" width="130" height="60" as="geometry" />
        </mxCell>
        <mxCell id="OR1jQChTx1EjwapNimjL-182" style="edgeStyle=orthogonalEdgeStyle;rounded=0;orthogonalLoop=1;jettySize=auto;html=1;exitX=1;exitY=0;exitDx=0;exitDy=0;" edge="1" parent="1" source="OR1jQChTx1EjwapNimjL-183">
          <mxGeometry relative="1" as="geometry">
            <mxPoint x="1100" y="410" as="targetPoint" />
          </mxGeometry>
        </mxCell>
        <mxCell id="OR1jQChTx1EjwapNimjL-183" value="First Name" style="rounded=1;whiteSpace=wrap;html=1;fontSize=24;" vertex="1" parent="1">
          <mxGeometry x="157" y="454.5" width="225" height="60" as="geometry" />
        </mxCell>
        <mxCell id="OR1jQChTx1EjwapNimjL-184" style="edgeStyle=orthogonalEdgeStyle;rounded=0;orthogonalLoop=1;jettySize=auto;html=1;exitX=1;exitY=0.25;exitDx=0;exitDy=0;entryX=0;entryY=1;entryDx=0;entryDy=0;" edge="1" parent="1" source="OR1jQChTx1EjwapNimjL-185" target="OR1jQChTx1EjwapNimjL-165">
          <mxGeometry relative="1" as="geometry" />
        </mxCell>
        <mxCell id="OR1jQChTx1EjwapNimjL-185" value="Last Name" style="rounded=1;whiteSpace=wrap;html=1;fontSize=24;" vertex="1" parent="1">
          <mxGeometry x="442" y="454.5" width="225" height="60" as="geometry" />
        </mxCell>
        <mxCell id="OR1jQChTx1EjwapNimjL-186" style="edgeStyle=orthogonalEdgeStyle;rounded=0;orthogonalLoop=1;jettySize=auto;html=1;exitX=1;exitY=0.5;exitDx=0;exitDy=0;entryX=0.25;entryY=1;entryDx=0;entryDy=0;" edge="1" parent="1" source="OR1jQChTx1EjwapNimjL-187" target="OR1jQChTx1EjwapNimjL-175">
          <mxGeometry relative="1" as="geometry" />
        </mxCell>
        <mxCell id="OR1jQChTx1EjwapNimjL-187" value="&lt;span style=&quot;font-size: 24px;&quot;&gt;Register Btn&lt;/span&gt;" style="rounded=1;whiteSpace=wrap;html=1;" vertex="1" parent="1">
          <mxGeometry x="311" y="830" width="208" height="70" as="geometry" />
        </mxCell>
        <mxCell id="OR1jQChTx1EjwapNimjL-188" value="&lt;font style=&quot;font-size: 24px;&quot;&gt;&amp;nbsp;Background color&amp;nbsp;#CCE8EE (extremely Light blue)&lt;/font&gt;" style="text;strokeColor=none;align=center;fillColor=none;html=1;verticalAlign=middle;whiteSpace=wrap;rounded=0;" vertex="1" parent="1">
          <mxGeometry x="1330" y="240" width="240" height="130" as="geometry" />
        </mxCell>
        <mxCell id="OR1jQChTx1EjwapNimjL-189" value="&lt;font style=&quot;font-size: 24px;&quot;&gt;All text is Font&amp;nbsp;&lt;/font&gt;&lt;div&gt;&lt;font style=&quot;&quot;&gt;&lt;font style=&quot;font-size: 24px;&quot;&gt;Montserrat&lt;/font&gt;&lt;br&gt;&lt;/font&gt;&lt;/div&gt;" style="text;strokeColor=none;align=center;fillColor=none;html=1;verticalAlign=middle;whiteSpace=wrap;rounded=0;" vertex="1" parent="1">
          <mxGeometry x="1330" y="160" width="240" height="90" as="geometry" />
        </mxCell>
        <mxCell id="OR1jQChTx1EjwapNimjL-144" value="Supplier Company name input" style="rounded=1;whiteSpace=wrap;html=1;fontSize=24;" vertex="1" parent="1">
          <mxGeometry x="160" y="550" width="510" height="60" as="geometry" />
        </mxCell>
        <mxCell id="OR1jQChTx1EjwapNimjL-190" style="edgeStyle=orthogonalEdgeStyle;rounded=0;orthogonalLoop=1;jettySize=auto;html=1;exitX=1;exitY=0.5;exitDx=0;exitDy=0;entryX=0.196;entryY=1.167;entryDx=0;entryDy=0;entryPerimeter=0;" edge="1" parent="1" source="OR1jQChTx1EjwapNimjL-144" target="OR1jQChTx1EjwapNimjL-165">
          <mxGeometry relative="1" as="geometry" />
        </mxCell>
      </root>
    </mxGraphModel>
  </diagram>
</mxfile>
